<mxfile host="app.diagrams.net" modified="2025-05-22T05:30:00.000Z" agent="Gemini AI" etag="U_FL7F_v9qZhtwQ85aUn" version="21.0.0" type="device">
  <diagram name="Page-1" id="L8qcxZpKWK4q7eCFh3jC">
    <mxGraphModel dx="1434" dy="790" grid="1" gridSize="10" guides="1" tooltips="1" connect="1" arrows="1" fold="1" page="1" pageScale="1" pageWidth="827" pageHeight="1169" math="0" shadow="0">
      <root>
        <mxCell id="0" />
        <mxCell id="1" parent="0" />
        <mxCell id="employee_entity" value="&lt;b&gt;employee&lt;/b&gt;&lt;hr size=&quot;1&quot;&gt;employee_id (PK) CHAR(5)&lt;br&gt;full_name VARCHAR(100)&lt;br&gt;position VARCHAR(20)&lt;br&gt;photo VARCHAR(100)&lt;br&gt;phone_number VARCHAR(13)&lt;br&gt;password VARCHAR(255)&lt;br&gt;remember_token VARCHAR(255)" style="swimlane;fontStyle=0;childLayout=stackLayout;horizontal=1;startSize=26;fillColor=#ffffff;horizontalStack=0;resizeParent=1;resizeParentMax=0;resizeLast=0;collapsible=1;marginBottom=0;html=1;align=center;rounded=1;shadow=0;strokeWidth=1;" parent="1" vertex="1">
          <mxGeometry x="80" y="200" width="220" height="190" as="geometry" />
        </mxCell>
        <mxCell id="attendance_entity" value="&lt;b&gt;attendance&lt;/b&gt;&lt;hr size=&quot;1&quot;&gt;attd_id (PK) INT&lt;br&gt;employee_id (FK) CHAR(5)&lt;br&gt;attd_date DATE&lt;br&gt;clock_in TIME&lt;br&gt;clock_out TIME&lt;br&gt;photo_in VARCHAR(255)&lt;br&gt;photo_out VARCHAR(255)&lt;br&gt;location_in TEXT&lt;br&gt;location_out TEXT" style="swimlane;fontStyle=0;childLayout=stackLayout;horizontal=1;startSize=26;fillColor=#ffffff;horizontalStack=0;resizeParent=1;resizeParentMax=0;resizeLast=0;collapsible=1;marginBottom=0;html=1;align=center;rounded=1;shadow=0;strokeWidth=1;" parent="1" vertex="1">
          <mxGeometry x="450" y="80" width="220" height="220" as="geometry" />
        </mxCell>
        <mxCell id="permit_entity" value="&lt;b&gt;permit&lt;/b&gt;&lt;hr size=&quot;1&quot;&gt;permit_id (PK) INT&lt;br&gt;employee_id (FK) CHAR(5)&lt;br&gt;permit_date DATE&lt;br&gt;status CHAR(1)&lt;br&gt;description VARCHAR(255)&lt;br&gt;approval_status CHAR(1)" style="swimlane;fontStyle=0;childLayout=stackLayout;horizontal=1;startSize=26;fillColor=#ffffff;horizontalStack=0;resizeParent=1;resizeParentMax=0;resizeLast=0;collapsible=1;marginBottom=0;html=1;align=center;rounded=1;shadow=0;strokeWidth=1;" parent="1" vertex="1">
          <mxGeometry x="450" y="360" width="220" height="170" as="geometry" />
        </mxCell>
        <mxCell id="users_entity" value="&lt;b&gt;users&lt;/b&gt;&lt;hr size=&quot;1&quot;&gt;id (PK) BIGINT UNSIGNED&lt;br&gt;name VARCHAR(255)&lt;br&gt;email VARCHAR(255)&lt;br&gt;email_verified_at TIMESTAMP&lt;br&gt;password VARCHAR(255)&lt;br&gt;remember_token VARCHAR(100)&lt;br&gt;created_at TIMESTAMP&lt;br&gt;updated_at TIMESTAMP" style="swimlane;fontStyle=0;childLayout=stackLayout;horizontal=1;startSize=26;fillColor=#ffffff;horizontalStack=0;resizeParent=1;resizeParentMax=0;resizeLast=0;collapsible=1;marginBottom=0;html=1;align=center;rounded=1;shadow=0;strokeWidth=1;" parent="1" vertex="1">
          <mxGeometry x="80" y="500" width="240" height="200" as="geometry" />
        </mxCell>
        <mxCell id="rel_emp_attd" value="" style="edgeStyle=entityRelationEdgeStyle;endArrow=ERmandOne;startArrow=ERone;html=1;rounded=0;entryX=0;entryY=0.5;entryDx=0;entryDy=0;exitX=1;exitY=0.3;exitDx=0;exitDy=0;" parent="1" source="employee_entity" target="attendance_entity" edge="1">
          <mxGeometry width="100" height="100" relative="1" as="geometry">
            <mxPoint x="320" y="250" as="sourcePoint" />
            <mxPoint x="420" y="190" as="targetPoint" />
          </mxGeometry>
        </mxCell>
        <mxCell id="rel_emp_permit" value="" style="edgeStyle=entityRelationEdgeStyle;endArrow=ERmandOne;startArrow=ERone;html=1;rounded=0;entryX=0;entryY=0.5;entryDx=0;entryDy=0;exitX=1;exitY=0.7;exitDx=0;exitDy=0;" parent="1" source="employee_entity" target="permit_entity" edge="1">
          <mxGeometry width="100" height="100" relative="1" as="geometry">
            <mxPoint x="320" y="330" as="sourcePoint" />
            <mxPoint x="420" y="450" as="targetPoint" />
          </mxGeometry>
        </mxCell>
      </root>
    </mxGraphModel>
  </diagram>
</mxfile>